<svg width="118" height="118" viewBox="0 0 118 118" fill="none" xmlns="http://www.w3.org/2000/svg">
<g clip-path="url(#clip0_1_2)">
<path d="M0 20C0 8.9543 8.9543 0 20 0H97.03C108.076 0 117.03 8.9543 117.03 20V97.03C117.03 108.076 108.076 117.03 97.03 117.03H20C8.9543 117.03 0 108.076 0 97.03V20Z" fill="#61A85F"/>
<path d="M87.4886 67.5966C90.3543 67.5966 92.7143 65.2366 92.7143 62.3709V49.0539C92.7143 44.2917 89.7224 39.951 85.2974 38.2653L63.1302 29.8367C60.4752 28.8253 57.5673 28.8253 54.9123 29.8367L31.9444 38.6025C29.8372 39.4032 27.6036 39.8246 25.3279 39.8246V48.2531C28.615 48.2531 31.8179 47.663 34.8522 46.5251L53.8587 39.2767L57.9045 37.7174L59 37.2958L60.0958 37.7174L64.0572 39.2345L84.2857 46.9467V59.2102H25.2857V67.6388H31.0173V79.9447H25.2857V88.3732H92.7143V79.9447H86.9829V67.6388H87.4886V67.5966ZM39.4459 67.5966H54.7857V79.9025H39.4459V67.5966ZM78.5544 79.9025H63.2143V67.5966H78.5544V79.9025Z" fill="white"/>
</g>
<defs>
<clipPath id="clip0_1_2">
<rect width="118" height="118" fill="white"/>
</clipPath>
</defs>
</svg>
